IKResults
version=1
nRows=45
nColumns=24
inDegrees=yes

Units are S.I. units (second, meters, Newtons, ...)
If the header above contains a line with 'inDegrees', this indicates whether rotational values are in degrees (yes) or radians (no).

endheader
time	pelvis_tilt	pelvis_list	pelvis_rotation	pelvis_tx	pelvis_ty	pelvis_tz	hip_flexion_r	hip_adduction_r	hip_rotation_r	knee_angle_r	ankle_angle_r	subtalar_angle_r	mtp_angle_r	hip_flexion_l	hip_adduction_l	hip_rotation_l	knee_angle_l	ankle_angle_l	subtalar_angle_l	mtp_angle_l	lumbar_extension	lumbar_bending	lumbar_rotation
1.450000	7.029646	5.568690	-180.760575	0.324216	0.356901	-1.213194	98.289492	-31.969183	-0.522734	-136.736884	42.955030	8.229658	0.000000	111.342016	-35.721447	19.831327	-136.036443	41.823304	24.185346	0.000000	-21.168810	5.652521	5.541268
1.455000	7.001941	5.595107	-180.767072	0.324277	0.356765	-1.213166	98.276547	-32.008755	-0.547430	-136.752197	42.953281	8.275903	0.000000	111.361434	-35.698358	19.903753	-136.025584	41.779432	24.207222	0.000000	-21.217866	5.675835	5.557585
1.460000	6.989975	5.598728	-180.775217	0.324368	0.356574	-1.213291	98.305152	-32.038009	-0.575914	-136.776236	42.961841	8.286200	0.000000	111.376223	-35.698947	19.907653	-136.040035	41.795431	24.205504	0.000000	-21.244187	5.656923	5.550265
1.465000	7.057146	5.781632	-180.784538	0.324593	0.356304	-1.213633	98.256118	-32.044866	-0.876195	-136.783241	42.951528	8.300328	0.000000	111.420991	-35.769750	19.604709	-136.305685	42.441852	23.360346	0.000000	-21.206465	5.806609	5.615399
1.470000	6.999931	5.605363	-180.796532	0.324487	0.356278	-1.213155	98.396494	-32.137007	-0.563444	-136.796823	42.971116	8.494142	0.000000	111.428251	-35.659866	19.938808	-136.075786	41.817649	24.176179	0.000000	-21.263104	5.686375	5.525585
1.475000	6.971594	5.633958	-180.841694	0.324504	0.356271	-1.213047	98.381773	-32.152446	-0.604520	-136.796522	42.920704	8.552865	0.000000	111.433233	-35.687214	19.953507	-136.161831	41.874048	24.099440	0.000000	-21.308766	5.726960	5.568198
1.480000	6.960673	5.630975	-180.864683	0.324541	0.356254	-1.212877	98.400543	-32.186444	-0.587590	-136.790203	42.898881	8.593825	0.000000	111.433909	-35.670847	20.020035	-136.129351	41.784823	24.159485	0.000000	-21.340096	5.756285	5.552045
1.485000	6.968740	5.636513	-180.877852	0.324597	0.356132	-1.212885	98.424710	-32.210232	-0.602690	-136.792521	42.881494	8.649953	0.000000	111.455626	-35.670567	20.018783	-136.139567	41.827922	24.157078	0.000000	-21.336267	5.768547	5.532691
1.490000	6.979862	5.604499	-180.882622	0.324652	0.356012	-1.212908	98.489528	-32.242411	-0.563315	-136.801772	42.922504	8.708675	0.000000	111.455279	-35.672692	19.979146	-136.141081	41.802112	24.154139	0.000000	-21.322327	5.734465	5.512607
1.495000	6.965664	5.612591	-180.904712	0.324668	0.355981	-1.212852	98.491712	-32.262920	-0.572636	-136.798556	42.888502	8.764472	0.000000	111.447347	-35.678144	19.993752	-136.156754	41.820749	24.132738	0.000000	-21.351590	5.741828	5.506205
1.500000	7.025005	5.817508	-180.939095	0.324831	0.355872	-1.213131	98.401691	-32.239079	-0.912639	-136.787971	42.896496	8.757546	0.000000	111.468574	-35.783307	19.669875	-136.434031	42.474518	23.196755	0.000000	-21.308519	5.916505	5.610243
1.505000	6.992856	5.582187	-180.996504	0.324824	0.355897	-1.212676	98.613810	-32.250867	-0.535093	-136.777801	42.860843	8.851162	0.000000	111.454041	-35.719479	19.957227	-136.181584	41.834257	24.041448	0.000000	-21.338411	5.711123	5.565672
1.510000	6.958244	5.622297	-180.983945	0.324723	0.355915	-1.212571	98.547701	-32.323491	-0.579734	-136.782136	42.867698	8.887605	0.000000	111.426894	-35.704056	19.944100	-136.262099	41.927995	23.965581	0.000000	-21.357549	5.773631	5.558364
1.515000	6.965975	5.590614	-181.029868	0.324883	0.355867	-1.212597	98.601063	-32.287971	-0.552437	-136.770779	42.849180	8.909394	0.000000	111.423548	-35.732085	19.943626	-136.211532	41.868866	23.986571	0.000000	-21.368749	5.740698	5.540818
1.520000	6.956116	5.599526	-181.002517	0.324791	0.355842	-1.212478	98.589863	-32.363524	-0.544440	-136.777070	42.830686	8.973935	0.000000	111.404207	-35.694271	19.936218	-136.223945	41.886631	24.002025	0.000000	-21.359443	5.775175	5.506193
1.525000	6.954186	5.605733	-181.034847	0.324792	0.355854	-1.212359	98.591439	-32.366521	-0.553495	-136.764294	42.805408	9.031628	0.000000	111.394767	-35.712587	19.923648	-136.242318	41.918477	23.956255	0.000000	-21.359577	5.787548	5.551101
1.530000	7.039800	5.770243	-181.110020	0.325063	0.355772	-1.212586	98.559445	-32.282889	-0.837026	-136.736958	42.733426	8.876210	0.000000	111.418341	-35.846059	19.568063	-136.512978	42.517268	22.994368	0.000000	-21.307877	5.923109	5.678034
1.535000	7.052292	5.768458	-181.131909	0.325068	0.355749	-1.212443	98.598108	-32.298748	-0.828238	-136.732194	42.694186	8.873207	0.000000	111.426686	-35.846099	19.551151	-136.541276	42.521612	22.959150	0.000000	-21.297723	5.934745	5.667885
1.540000	7.179162	6.012911	-181.136073	0.325399	0.355558	-1.212998	98.543490	-32.255073	-1.248761	-136.714785	42.726709	8.807945	0.000000	111.353176	-36.012989	19.496195	-136.841113	43.700132	22.976763	0.000000	-21.198517	6.121678	5.748286
1.545000	7.061658	5.431900	-181.133002	0.325138	0.355542	-1.212055	98.915532	-32.332769	-0.129822	-136.708051	42.883668	9.657710	0.000000	111.371258	-35.735215	19.643670	-136.265747	41.883697	23.696084	0.000000	-21.261796	5.623667	5.516077
1.550000	7.040277	5.682201	-181.131085	0.325191	0.355657	-1.212398	98.695134	-32.347257	-0.690643	-136.725649	42.752916	9.087303	0.000000	111.302624	-35.835627	19.411069	-136.514746	42.590965	22.920007	0.000000	-21.314595	5.844166	5.586369
1.555000	7.055000	5.693566	-181.148016	0.325214	0.355690	-1.212207	98.714753	-32.362518	-0.700399	-136.705914	42.702579	9.092876	0.000000	111.307397	-35.822227	19.402227	-136.533332	42.606310	22.897191	0.000000	-21.301366	5.877736	5.617252
1.560000	7.077677	5.704624	-181.183060	0.325247	0.355714	-1.211995	98.746218	-32.360850	-0.696812	-136.684110	42.637979	9.018536	0.000000	111.327044	-35.819029	19.387883	-136.564611	42.581232	22.796133	0.000000	-21.281057	5.915679	5.650787
1.565000	7.079825	5.707937	-181.205944	0.325243	0.355722	-1.211852	98.749550	-32.362113	-0.689499	-136.670914	42.639681	9.016570	0.000000	111.320378	-35.825823	19.377518	-136.587534	42.583066	22.791265	0.000000	-21.282658	5.949334	5.642290
1.570000	7.074840	5.692980	-181.203498	0.325282	0.355706	-1.211826	98.766755	-32.371051	-0.669362	-136.665832	42.611778	9.112306	0.000000	111.290646	-35.819465	19.344295	-136.583072	42.598787	22.771008	0.000000	-21.291227	5.944249	5.609055
1.575000	7.074606	5.692797	-181.204957	0.325281	0.355694	-1.211834	98.762997	-32.372425	-0.667461	-136.663736	42.612982	9.113854	0.000000	111.288752	-35.820173	19.342543	-136.575852	42.598752	22.770657	0.000000	-21.285226	5.941983	5.608377
1.580000	7.076142	5.674829	-181.205130	0.325267	0.355734	-1.211738	98.784822	-32.386784	-0.628709	-136.656845	42.628200	9.171172	0.000000	111.259720	-35.820202	19.293985	-136.573416	42.616262	22.736078	0.000000	-21.272468	5.940689	5.621327
1.585000	7.043267	5.720746	-181.174569	0.325135	0.355878	-1.211542	98.701586	-32.456641	-0.672456	-136.647431	42.611109	9.222928	0.000000	111.230596	-35.784408	19.314928	-136.585189	42.611601	22.700038	0.000000	-21.288103	6.005419	5.645997
1.590000	7.045567	5.728710	-181.187287	0.325107	0.355957	-1.211415	98.698571	-32.462736	-0.675551	-136.633106	42.611138	9.224162	0.000000	111.226281	-35.797083	19.298395	-136.592250	42.615213	22.698305	0.000000	-21.285106	6.024467	5.655649
1.595000	7.048567	5.728827	-181.188650	0.325110	0.355962	-1.211416	98.696426	-32.464735	-0.673855	-136.625995	42.610023	9.226136	0.000000	111.222215	-35.802291	19.296721	-136.581763	42.617065	22.698375	0.000000	-21.285609	6.026889	5.654773
1.600000	7.042714	5.708684	-181.189690	0.325109	0.355983	-1.211390	98.695409	-32.469980	-0.654149	-136.613977	42.608715	9.257314	0.000000	111.182954	-35.819440	19.250323	-136.575893	42.663048	22.719317	0.000000	-21.294448	6.017349	5.613121
1.605000	7.046833	5.710563	-181.195803	0.325097	0.356076	-1.211220	98.685834	-32.485514	-0.647064	-136.587576	42.609262	9.275056	0.000000	111.157256	-35.822418	19.209632	-136.585802	42.666188	22.720032	0.000000	-21.281763	6.053563	5.668873
1.610000	7.040212	5.719146	-181.222462	0.325052	0.356235	-1.211021	98.662881	-32.486545	-0.651297	-136.559577	42.594752	9.314508	0.000000	111.124258	-35.849136	19.186641	-136.599553	42.691815	22.685897	0.000000	-21.294267	6.093253	5.691787
1.615000	7.049506	5.723598	-181.236708	0.325041	0.356347	-1.210861	98.654379	-32.489431	-0.652671	-136.531421	42.599226	9.317421	0.000000	111.113540	-35.865597	19.154712	-136.606975	42.687966	22.678729	0.000000	-21.292884	6.121280	5.695202
1.620000	7.056640	5.720257	-181.232720	0.325035	0.356450	-1.210871	98.634919	-32.493853	-0.663571	-136.509526	42.600933	9.320843	0.000000	111.096811	-35.879181	19.125259	-136.580608	42.685796	22.679387	0.000000	-21.276491	6.114324	5.704212
1.625000	7.032860	5.671856	-181.207826	0.325014	0.356556	-1.210960	98.616368	-32.503471	-0.606417	-136.501082	42.680524	9.348922	0.000000	111.011083	-35.907354	19.039017	-136.537520	42.720152	22.719994	0.000000	-21.284567	6.044205	5.701682
1.630000	7.042628	5.664779	-181.198943	0.324989	0.356694	-1.211017	98.592419	-32.505285	-0.626423	-136.478142	42.673477	9.355575	0.000000	110.992220	-35.927749	19.004587	-136.500772	42.722042	22.727103	0.000000	-21.267946	6.033998	5.701215
1.635000	7.046744	5.616504	-181.252009	0.325037	0.356900	-1.210958	98.614474	-32.441295	-0.577016	-136.432955	42.654995	9.377550	0.000000	110.930316	-36.007857	18.915090	-136.476140	42.734678	22.720840	0.000000	-21.267878	5.971138	5.782500
1.640000	7.025231	5.646046	-181.232621	0.324864	0.357255	-1.210640	98.513657	-32.502959	-0.620634	-136.387015	42.637894	9.360906	0.000000	110.851248	-36.003351	18.867291	-136.471536	42.765237	22.677619	0.000000	-21.272870	6.053617	5.783276
1.645000	7.039425	5.647343	-181.248379	0.324829	0.357602	-1.210445	98.463580	-32.507207	-0.646037	-136.321869	42.634737	9.352578	0.000000	110.793399	-36.027929	18.799467	-136.446320	42.777450	22.651812	0.000000	-21.246719	6.083466	5.821124
1.650000	7.040483	5.611111	-181.253751	0.324806	0.357965	-1.210408	98.424959	-32.495399	-0.630437	-136.267846	42.629651	9.296927	0.000000	110.693675	-36.072403	18.688012	-136.402604	42.779718	22.622996	0.000000	-21.233445	6.052898	5.823754
1.655000	7.036102	5.581263	-181.229600	0.324752	0.358387	-1.210447	98.344874	-32.504843	-0.626661	-136.209546	42.687474	9.151995	0.000000	110.577165	-36.095440	18.583854	-136.331290	42.772637	22.638351	0.000000	-21.218577	6.018156	5.803847
1.660000	7.048559	5.518575	-181.254392	0.324795	0.358884	-1.210575	98.320214	-32.442679	-0.607713	-136.134185	42.678442	9.073525	0.000000	110.455512	-36.173204	18.445709	-136.236825	42.807939	22.643241	0.000000	-21.188771	5.929785	5.851012
1.665000	7.035878	5.483084	-181.217826	0.324669	0.359564	-1.210489	98.221635	-32.478077	-0.613983	-136.046957	42.670265	9.151042	0.000000	110.284537	-36.189978	18.288009	-136.144965	42.800451	22.595677	0.000000	-21.173570	5.900623	5.820741
1.670000	7.046595	5.482244	-181.174088	0.324455	0.360279	-1.210265	98.100581	-32.542764	-0.650703	-135.952970	42.721910	9.142559	0.000000	110.139571	-36.186041	18.156604	-136.071455	42.809200	22.553482	0.000000	-21.111034	5.939088	5.789743
